<svg viewBox="0 0 32 32" xmlns="http://www.w3.org/2000/svg">
    <path d="M20.2409 16L9.95389 5.7127C9.75722 5.51626 9.66011 5.28126 9.66255 5.0077C9.66522 4.73415 9.76489 4.49915 9.96155 4.3027C10.158 4.10604 10.393 4.0077 10.6666 4.0077C10.9401 4.0077 11.1751 4.10604 11.3716 4.3027L21.5616 14.4847C21.7769 14.7 21.9341 14.9402 22.0332 15.205C22.1323 15.4701 22.1819 15.7352 22.1819 16C22.1819 16.2649 22.1323 16.5299 22.0332 16.795C21.9341 17.0599 21.7769 17.3 21.5616 17.5154L11.3716 27.705C11.1751 27.9017 10.9388 27.9987 10.6626 27.996C10.3866 27.9936 10.1503 27.894 9.95389 27.6974C9.75722 27.5009 9.65889 27.2659 9.65889 26.9924C9.65889 26.7188 9.75722 26.4838 9.95389 26.2874L20.2409 16Z" />
</svg>
