<svg viewBox="0 0 60 60" xmlns="http://www.w3.org/2000/svg">
<path d="M30 29.7113C28.2596 29.7113 26.7829 29.1048 25.57 27.8919C24.3567 26.6785 23.75 25.2017 23.75 23.4613C23.75 21.7629 24.3567 20.2967 25.57 19.0625C26.7829 17.8283 28.2596 17.2113 30 17.2113C31.6987 17.2113 33.165 17.8283 34.3988 19.0625C35.6329 20.2967 36.25 21.7629 36.25 23.4613C36.25 25.2017 35.6329 26.6785 34.3988 27.8919C33.165 29.1048 31.6987 29.7113 30 29.7113ZM16.25 40.7694V39.2887C16.25 38.6058 16.4206 37.9752 16.7619 37.3969C17.1031 36.8181 17.5688 36.3477 18.1588 35.9856C19.9471 34.9248 21.8452 34.1267 23.8531 33.5912C25.8615 33.0562 27.9104 32.7887 30 32.7887C32.0896 32.7887 34.1385 33.0562 36.1469 33.5912C38.1548 34.1267 40.0529 34.9248 41.8413 35.9856C42.4313 36.3477 42.8969 36.8181 43.2381 37.3969C43.5794 37.9752 43.75 38.6058 43.75 39.2887V40.7694C43.75 41.3494 43.5585 41.8308 43.1756 42.2138C42.7927 42.5971 42.311 42.7887 41.7306 42.7887H18.2694C17.689 42.7887 17.2073 42.5971 16.8244 42.2138C16.4415 41.8308 16.25 41.3494 16.25 40.7694ZM11.5387 52.5C10.3879 52.5 9.42708 52.1146 8.65625 51.3438C7.88542 50.5729 7.5 49.6121 7.5 48.4613V41.25C7.5 40.8942 7.61938 40.5969 7.85813 40.3581C8.09688 40.1194 8.39417 40 8.75 40C9.10583 40 9.40313 40.1194 9.64188 40.3581C9.88063 40.5969 10 40.8942 10 41.25V48.4613C10 48.8462 10.1602 49.199 10.4806 49.5194C10.801 49.8398 11.1537 50 11.5387 50H18.75C19.1058 50 19.4031 50.1194 19.6419 50.3581C19.8806 50.5969 20 50.8942 20 51.25C20 51.6058 19.8806 51.9031 19.6419 52.1419C19.4031 52.3806 19.1058 52.5 18.75 52.5H11.5387ZM7.5 18.75V11.5387C7.5 10.3879 7.88542 9.42708 8.65625 8.65625C9.42708 7.88542 10.3879 7.5 11.5387 7.5H18.75C19.1058 7.5 19.4031 7.61937 19.6419 7.85812C19.8806 8.09687 20 8.39417 20 8.75C20 9.10583 19.8806 9.40313 19.6419 9.64188C19.4031 9.88063 19.1058 10 18.75 10H11.5387C11.1537 10 10.801 10.1602 10.4806 10.4806C10.1602 10.801 10 11.1537 10 11.5387V18.75C10 19.1058 9.88063 19.4031 9.64188 19.6419C9.40313 19.8806 9.10583 20 8.75 20C8.39417 20 8.09688 19.8806 7.85813 19.6419C7.61938 19.4031 7.5 19.1058 7.5 18.75ZM48.4613 52.5H41.25C40.8942 52.5 40.5969 52.3806 40.3581 52.1419C40.1194 51.9031 40 51.6058 40 51.25C40 50.8942 40.1194 50.5969 40.3581 50.3581C40.5969 50.1194 40.8942 50 41.25 50H48.4613C48.8462 50 49.199 49.8398 49.5194 49.5194C49.8398 49.199 50 48.8462 50 48.4613V41.25C50 40.8942 50.1194 40.5969 50.3581 40.3581C50.5969 40.1194 50.8942 40 51.25 40C51.6058 40 51.9031 40.1194 52.1419 40.3581C52.3806 40.5969 52.5 40.8942 52.5 41.25V48.4613C52.5 49.6121 52.1146 50.5729 51.3438 51.3438C50.5729 52.1146 49.6121 52.5 48.4613 52.5ZM50 18.75V11.5387C50 11.1537 49.8398 10.801 49.5194 10.4806C49.199 10.1602 48.8462 10 48.4613 10H41.25C40.8942 10 40.5969 9.88063 40.3581 9.64188C40.1194 9.40313 40 9.10583 40 8.75C40 8.39417 40.1194 8.09687 40.3581 7.85812C40.5969 7.61937 40.8942 7.5 41.25 7.5H48.4613C49.6121 7.5 50.5729 7.88542 51.3438 8.65625C52.1146 9.42708 52.5 10.3879 52.5 11.5387V18.75C52.5 19.1058 52.3806 19.4031 52.1419 19.6419C51.9031 19.8806 51.6058 20 51.25 20C50.8942 20 50.5969 19.8806 50.3581 19.6419C50.1194 19.4031 50 19.1058 50 18.75Z" />
</svg>
