<?xml version="1.0" encoding="UTF-8"?>
<svg id="uuid-ed171d61-af98-4d3c-9951-b515af07593a" data-name="Capa 1" xmlns="http://www.w3.org/2000/svg" viewBox="0 0 1080 1080">
  <path d="M101.7476,718.981c-6.6615-2.3794-12.0592-6.3189-15.0391-12.6807-3.6611-7.816-3.8009-16.7566-3.8737-25.3872-.0759-9.0016-.1518-18.0032-.2277-27.0048-.2526-29.964-3.5107-61.505,1.5592-91.0429,3.4029-19.8261,4.9095-39.9266,8.1318-59.7816,6.2979-38.8068,20.3609-79.565,62.1642-91.3655,41.2961-11.6573,78.4254,5.4847,97.9784,41.8801l46.0054,103.6587c15.2467,1.8182,30.6229,2.0654,45.9264,3.1646,6.98.5014,14.2896,1.4341,21.2395,2.0813,7.7056.7176,17.0987,2.0683,17.0987,2.0683,0,0,10.8855,1.8029,14.7489,2.3247,27.7673,3.7509,29.7057,45.6353,8.3159,58.0198-3.4013,1.9693-7.2524,3.0294-11.1731,3.1978l-135.9991-.008c-10.1676-2.9016-19.2577-9.563-25.0367-18.4953l-42.834-85.1108c-9.5073,9.0364-18.113,19.3659-24.637,30.7675-32.9004,57.4981-13.5036,115.4601,33.1857,157.2245,3.2045,2.8665,7.8447,5.2512,10.5724,8.5553-1.2508-1.5151-13.7611,0-15.6437,0h-36.3867c-14.3523,0-39.2468,3.9455-56.0758-2.0657Z"/>
  <path d="M853.6002,721.0467c2.7276-3.304,7.3679-5.6888,10.5724-8.5553,47.0742-42.1085,66.4628-101.4188,32.1948-158.8718-2.9454-4.9381-16.2063-23.8479-19.9809-26.5303-.8312-.5907-3.6043-1.7204-4.2643-1.2569l-40.6507,82.7236c-5.4873,8.6675-14.2934,14.9516-23.9659,18.247l-138.6581-.0042c-30.1204-5.1539-31.9308-51.4717-6.5643-59.4732,10.1898-3.2142,27.823-4.5915,38.9676-5.8836,21.6797-2.5135,43.69-2.7133,65.3037-5.9305,15.2317-29.7677,25.3073-62.0863,39.7442-92.1717,19.9561-41.5871,54.1644-65.3204,102.6932-51.6215,35.9581,10.1504,51.778,42.5035,59.5897,76.3961,9.4409,40.9611,14.6795,82.8758,22.1872,124.19,4.3337,23.8482,8.6849,47.9255,7.7618,72.1466-.2437,6.3936-.895,12.9249-3.6152,18.7162-4.9466,10.5313-21.2119,17.8796-32.485,17.8796h-108.8301Z"/>
  <path d="M665.138,464.9527c34.5628,6.4905,68.3851,16.0021,101.4026,27.8944l-12.5492,31.6375-2.56,1.3485c-35.0119-13.2933-71.6253-22.3954-108.7056-27.9136-38.4195-88.8916-159.1394-97.2133-210.9935-14.7189-2.7046,4.3028-4.6565,12.6612-9.4321,14.3127-8.5206,2.9466-24.6384,4.0494-34.6132,6.2806-26.0996,5.838-51.7379,12.9776-76.8846,22.0475l-13.907-32.3282c33.8517-13.3259,69.3087-23.3331,105.4081-28.5321.4105-2.3608,1.2516-4.7101,1.4523-7.1189,4.3207-51.8569-3.3194-123.0589,60.4155-140.0954,5.8231-1.5565,19.1474-4.4063,24.726-4.3761,8.757.0474,34.9891,27.4413,44.8081,31.7479l43.6504-31.7058c19.4932,2.0412,39.3281,6.2291,54.6428,19.1073,36.3388,30.5573,26.2595,90.1932,33.1392,132.4127Z"/>
  <path d="M271.3882,372.3247c-34.5425,32.5409-92.0888,26.0149-118.2917-13.3517-45.4034-68.213,32.1582-150.8476,102.9511-110.866,44.7367,25.2659,53.0242,88.7178,15.3406,124.2177Z"/>
  <path d="M792.0658,372.3247c-37.6684-35.4855-29.3448-98.9808,15.3406-124.2177,62.0101-35.0213,134.2622,24.6139,112.213,92.4257-17.2675,53.1058-87.0327,69.9648-127.5536,31.792Z"/>
  <path d="M486.4147,274.315c-62.4733-62.4523,27.6855-153.793,91.4991-98.7545,69.1665,59.6554-24.1588,166.0722-91.4991,98.7545Z" fill="#63b2e0"/>
  <path d="M353.6391,715.787l-15.1476,30.335c-1.4026,1.6528-3.2561,1.5029-5.1744,1.2991-5.6402-.599-25.8516-8.6484-32.4209-11.2251-63.2023-24.7906-148.2483-79.3653-112.1323-158.9272l35.8619,66.3461c29.9593,41.0683,82.0824,58.0293,129.0133,72.1721Z"/>
  <path d="M842.2802,689.9392c-31.6874,27.691-71.3856,43.993-110.9689,57.2855-1.6741.3412-2.0925-.8516-2.8645-1.9224-5.8048-8.0516-9.3752-21.9345-15.9837-30.2048,45.395-14.4581,100.7317-31.6743,127.6854-74.1197,4.8023-7.5625,11.1206-17.6545,15.4551-25.4386,6.7107-12.0512,12.6762-25.4501,17.8005-38.2703,1.9905,1.0113,3.8122,5.8529,4.574,7.9323,15.5147,42.3501-4.5121,77.4851-35.698,104.738Z"/>
  <path d="M376.2529,881.2182c-16.0534-39.4788-16.846-105.7847-2.4685-151.3998,13.6908-43.3477,50.2531-66.6102,94.9268-69.9673,34.1692-2.5677,89.8225-2.4031,124.0977-.0042,38.6606,2.7058,75.1102,22.0277,90.5422,58.5336,9.6104,22.7551,17.1221,46.6653,17.9652,70.9209,1.0982,31.5976,2.1624,62.1686-9.0145,95.8962" fill="#d62e21"/>
  <path d="M517.9316,451.8368c62.0994-7.0055,114.5037,44.2356,104.1389,106.7772-14.1641,85.4666-129.8702,105.9506-171.806,30.0745-30.8975-55.9042,3.3666-129.5979,67.6671-136.8517Z"/>
</svg>