<?xml version="1.0" encoding="UTF-8"?>
<svg id="uuid-48b41363-d770-4137-a837-f7719cf3ae62" data-name="Capa 1" xmlns="http://www.w3.org/2000/svg" viewBox="0 0 1080 1080">
  <path d="M842.2371,281.0553v399.8939l-103.3594,63.4413H237.7629v-416.2888h499.6892l104.785-47.0463ZM414.2498,384.1214c-54.9221,2.1577-114.2265-1.509-126.1735,64.8632-8.5869,47.7051-8.3533,115.2667-1.6596,163.3517,6.9147,49.6728,25.5927,66.318,74.6783,72.1633,55.7234,6.6358,129.8003,7.1231,185.1176-1.6147,42.0323-6.6393,56.4972-30.4451,62.0366-70.5486,6.579-47.6305,6.9866-116.3301-1.4127-163.5986-9.0218-50.7713-41.5211-57.8788-86.0873-62.1741-34.3968-3.3152-71.8841-3.8021-106.4994-2.4422ZM673.7118,443.8714c-26.7923,2.4145-24.2967,47.9004,3.8612,45.3955,25.8484-2.2994,21.9105-47.718-3.8612-45.3955ZM670.7813,513.7539c-23.7,4.8162-19.9283,48.2146,6.6438,45.2075,26.8749-3.0414,21.7834-50.9843-6.6438-45.2075ZM669.3162,583.5994c-17.9146,4.1367-21.2947,38.8378,2.1318,44.364,30.4725,7.1884,32.9905-52.4741-2.1318-44.364Z"/>
  <path d="M615.1884,766.1168c14.9842-2.5116,35.191.601,41.7485,16.0196l45.2127,160.0724c4.4007,17.8259-16.8597,26.8709-26.3516,10.6775l-70.9399-171.4063.0105-10.0116c1.1895-2.4668,7.5734-4.8912,10.3197-5.3516Z"/>
  <path d="M318.0463,957.7831c-3.0803-2.8672-4.2658-9.426-3.7538-13.5585l45.7834-162.3472c4.0756-6.589,10.8168-11.0614,18.1939-13.1713,9.3377-2.6707,37.5948-5.3022,34.5644,10.2488l-72.1446,174.5729c-3.6217,8.4451-16.3112,10.1493-22.6433,4.2552Z"/>
  <path d="M683.6202,80.3965c16.6648-4.3374,25.7028,16.2121,12.5009,25.3171-2.9708,2.0489-7.0054,1.8413-9.0951,5.1613l-92.1891,168.7043c-8.2199,10.0815-32.0455,8.5664-23.7414-8.069l104.3069-170.8586c-3.0484-7.6793-.4706-17.9938,8.2176-20.2551Z" fill="#d62e21"/>
  <path d="M492.012,280.5714l-93.3544-169.6776c-7.1084-5.1188-16.4943-7.1296-15.2142-18.3562,2.3778-20.8526,35.8626-14.0799,26.9966,8.256l105.6944,173.557c4.3317,13.3582-15.8125,14.5726-24.1224,6.2207Z" fill="#63b2e0"/>
  <path d="M685.0897,810.2424c12.1048-1.6127,26.001,5.8573,30.9528,16.8604,4.6111,10.2459,16.2996,51.0584,17.7204,62.1029.9679,7.5238.0712,15.8535-8.3464,18.4938-9.8609,3.093-14.7478-1.7581-18.8759-9.7919-6.7222-13.0821-28.0447-62.0467-30.783-74.7085-1.7856-8.2566,1.0667-11.8555,9.3321-12.9567Z"/>
  <path d="M428.5331,810.3089c10.9121-.7576,16.4013,2.5815,13.8195,13.9402-2.1538,9.4756-27.124,69.6004-32.3166,77.4451-8.645,13.0604-26.4412,6.8309-25.4484-9.7083.5949-9.9114,13.3221-53.5404,17.4514-63.8685,4.1762-10.4455,15.2348-17.0268,26.4942-17.8086Z"/>
</svg>