<?xml version="1.0" encoding="UTF-8"?>
<svg id="uuid-43468b2c-d354-4bcd-9b7d-43bb42b09865" data-name="Capa 1" xmlns="http://www.w3.org/2000/svg" viewBox="0 0 1080 1080">
  <path d="M787.079,598.7339l21.5115-.361,2.3682-14.2715,23.4119.0559-.0424,14.6078c11.3678,11.8911,127.5212-48.8978,134.5567-43.6282.7843,2.8238-3.6354,4.3699-3.6354,5.4176v196.3513c0,1.0478,4.4196,2.5938,3.6354,5.4176-8.3889,6.315-122.6144-55.8267-134.5532-43.6172l.0354,18.2218-23.3877.0423-2.0648-18.2647-21.8358.0208v59.9962c0,30.2368-83.8834,17.7213-103.1996,19.7702-2.1927.612-6.1481,22.5362-22.3274,25.6005l-294.6322.2665c-20.9075-2.7278-21.1004-24.6426-25.8686-25.7954-24.4582-3.8108-85.5305,10.9053-98.9767-12.9854-10.7738-19.1425-.4055-68.8672-4.0273-92.2787,71.6593-3.2085,136.6544-65.589,138.167-138.1826,2.9444-3.3874,38.024,22.7129,44.7939,26.0748,71.6483,35.581,160.7715,30.098,227.5798-13.6836,13.2769-8.7008,47.5904-46.1854,53.7865-48.0251,14.8559-4.4109,84.7045-4.3276,84.7045,19.2539v59.9962ZM321.6726,762.3789l-3.425-42.0664-38.6404,1.8185-1.6057,40.2479h43.6712ZM390.7451,718.7141l-39.7553.2592-.516,41.687,39.9593,1.3764.312-43.3226ZM463.4819,762.3789l-3.425-42.0664-38.6404,1.8185-1.6057,40.2479h43.6712ZM493.071,719.2323c-4.3438,8.0613-7.7643,36.6408-.751,41.5412l42.3573-1.9264c.5038-8.6982,2.297-33.6182-5.6732-38.35l-35.9331-1.2648ZM605.2911,762.3789l-3.425-42.0664-38.6404,1.8185-1.6057,40.2479h43.6712ZM674.3776,762.3789l-1.6059-40.2486c-42.0576-13.9412-42.3345,5.2289-38.4283,40.2516l40.0341-.003ZM747.1003,762.3789l-3.425-42.0664-38.6404,1.8185-1.6057,40.2479h43.6712Z"/>
  <path d="M524.0717,185.587c256.092-.2,250.582,400.3328-15.2996,384.1988-239.083-14.5079-233.173-384.0047,15.2996-384.1988ZM493.6612,225.3355c-37.0354,32.719,6.5187,100.562,55.2629,67.976,47.5931-31.8164-9.995-107.968-55.2629-67.976ZM388.3366,287.2588c-40.7403,40.7458,23.819,102.5221,62.5841,60.765,37.9447-40.8734-23.2281-100.1264-62.5841-60.765ZM595.5867,287.2492c-39.7272,39.7295,23.3734,102.9921,62.5937,60.7746,38.4793-41.4199-23.8355-99.535-62.5937-60.7746ZM407.9348,395.9645c-47.9969,9.7884-38.3552,88.3569,12.7614,85.5712,62.4295-3.4022,50.5493-98.4827-12.7614-85.5712ZM615.1945,395.9647c-47.3321,9.6498-37.8164,88.3278,12.7614,85.5709,62.3232-3.397,51.7683-98.7268-12.7614-85.5709ZM517.1449,453.9449c-54.3802,8.7631-45.4608,94.5283,13.2904,86.4471,55.7634-7.6702,38.853-94.8498-13.2904-86.4471Z" fill="#63b2e0"/>
  <path d="M144.7705,622.8987c-99.7485-97.2099,42.5829-263.5073,155.1035-167.8291,118.7925,101.0113-42.3233,277.739-155.1035,167.8291ZM244.2459,450.7526c-30.6418-24.7582-63.2295,28.2079-27.9481,44.3135,25.9003,11.8232,49.6189-26.8037,27.9481-44.3135ZM309.6256,490.7394c-16.6934-22.3505-59.0044-4.5781-44.2551,27.9586,14.5399,32.0749,66.6857,2.0732,44.2551-27.9586ZM153.3487,483.1416c-26.5874,7.7696-13.0061,58.5257,19.3422,48.6397,30.1435-9.2121,21.7009-60.6337-19.3422-48.6397ZM182.4316,597.6338c27.7033-22.3734-15.4747-65.5516-37.8482-37.8482-19.7303,24.4305,13.4048,57.5889,37.8482,37.8482ZM280.7019,552.1042c-21.3769,4.4277-25.5336,41.4572-2.8633,48.6128,45.6028,14.3941,47.5172-57.8619,2.8633-48.6128ZM218.8341,588.5655c-22.6047,5.0837-23.3364,41.743-2.8487,48.5513,44.8987,14.9202,48.3091-58.7752,2.8487-48.5513Z" fill="#d62e21"/>
</svg>