<?xml version="1.0" encoding="UTF-8"?>
<svg id="uuid-dcb4984e-4e97-4ea7-b4b5-22d43a684ebb" data-name="Capa 1" xmlns="http://www.w3.org/2000/svg" viewBox="0 0 1080 1080">
  <path d="M175.9551,191.1203c-.7857.8396-1.7571,5.3809-1.9764,6.8369-11.2645,74.8014,22.5338,151.3099,97.4609,174.8903,27.5876,8.6821,91.8967,10.7218,119.5669,3.1999,4.0155-1.0916,13.0051-5.4966,16.005-5.3677,3.1459.1351,16.2179,9.7181,21.5592,11.9008,15.464,6.3193,60.402,13.7464,63.0645-10.7026,1.2154-11.1612-11.6564-26.9746-14.3588-38.9308-3.5298-15.617,2.8795-18.1076,9.1723-30.1757,40.9908-78.6118,16.0301-185.5306-70.3806-220.095-31.4355-12.5743-63.5907-10.7375-96.9195-10.242-6.3877,1.8781,1.9488,16.1554,3.3101,20.4194,23.7496,74.3889-49.0274,142.5933-121.1157,109.9914-4.9544-2.2406-19.7105-12.7043-23.1751-12.5929-.6402.0206-1.7859.4119-2.2128.8681ZM394.7629,179.9974c12.6382,2.3054,13.1074,19.2349.93,22.7481-17.9469-1.5352-41.8136,2.8129-59.0578.1528-12.1005-1.8666-11.924-20.2159.153-22.9037,17.2542,1.6196,41.5528-2.9928,57.9748.0028ZM396.6372,257.8471c10.9365,4.9271,10.6076,18.2081-.7851,22.0004h-113.9176c-11.8358-3.8619-11.5204-18.1897-.0002-22.1426l114.7029.1421Z" fill="#63b2e0"/>
  <path d="M246.3825,56.7602c-57.7484-5.9531-96.1698,59.9197-59.4959,105.8469,41.4229,51.8744,124.2478,17.2842,116.7698-49.0971-3.2373-28.7378-28.4519-53.7787-57.274-56.7499Z" fill="#d62e21"/>
  <path d="M820.5053,590.2756c-.9684-.8513-2.1146-1.8005-3.3812-2.8135,26.8622-19.0835,36.1683-42.0996,1.6346-72.4548-11.115-9.7693-46.3455-32.8615-59.5071-38.0067-8.2217-3.2155-17.4983,2.8331-20.6475,10.7422-7.4382,18.6765,8.105,40.8304,20.0601,55.8683,6.6619,8.3828,17.2279,13.6797,24.2012,20.0984-11.9172-7.5112-23.4725-14.1085-30.1055-16.7014-9.3613-3.6594-19.9205,3.2249-23.5071,12.2294-8.4686,21.2615,9.2288,46.4825,22.8379,63.6044,15.481,19.4768,49.4922,24.3171,29.4043,55.2646-4.306-4.8779-19.9866-19.7581-27.6393-16.1968-20.0123,9.3131-8.0898,33.6709-.6738,54.3486,5.3612,14.9485,32.5902,48.2592,33.224,54.9873,1.8662,19.8125-22.594,35.7103-40.5942,37.4446-70.9045,6.8311-154.6111-4.1677-226.7534-1.7-14.9625-3.8735-26.8262-21.2349-28.9536-36.2253-10.7372-75.6577,6.6251-175.2296-.1661-254.0312-3.6198-42.0024-10.1444-78.8706-55.0796-83.9468-16.5238-1.8667-24.7775,19.5149-21.4884,31.7939,9.3923,35.0649,15.7368,52.3406,17.9465,91.2207,2.9961,52.7219-7.2034,88.0366-12.7783,137.447-9.1519,81.1127,3.0009,170.0022,20.1456,249.5176,2.4657,11.4358,16.1433,78.5122,23.4357,80.8506h242.7911c1.8392-70.7283-6.0995-91.7091,25.0883-141.0424,35.7094-56.4857,159.5376-125.7211,66.224-196.2588,46.0615-24.2986,72.1305-53.9816,24.2819-96.0399Z"/>
  <path d="M571.2945,303.3905h131.9871c9.8871,10.8633,6.3148,30.885-9.592,32.7744-35.7023,4.2408-80.3294-3.1324-117.0515-.6402l-4.8885-4.8857-.4551-27.2485Z"/>
  <path d="M835.2757,287.1107c22.8323,26.9274-26.7701,63.0106-48.8585,87.9756,1.205-25.2152,2.2781-46.9838-19.5277-63.5512,19.6344-17.6516,50.5697-45.4363,68.3861-24.4244Z"/>
</svg>