<svg viewBox="0 0 32 32" xmlns="http://www.w3.org/2000/svg">
    <path d="M11.941 15.9961L22.228 26.2834C22.4247 26.4798 22.5218 26.7148 22.5193 26.9884C22.5167 27.2619 22.417 27.4969 22.2203 27.6934C22.0239 27.8901 21.7889 27.9884 21.5153 27.9884C21.2418 27.9884 21.0068 27.8901 20.8103 27.6934L10.6203 17.5114C10.405 17.2961 10.2478 17.0559 10.1487 16.7911C10.0496 16.5259 10 16.2609 10 15.9961C10 15.7312 10.0496 15.4662 10.1487 15.2011C10.2478 14.9362 10.405 14.6961 10.6203 14.4807L20.8103 4.29105C21.0068 4.09439 21.2431 3.99739 21.5193 4.00005C21.7953 4.0025 22.0316 4.10205 22.228 4.29872C22.4247 4.49517 22.523 4.73016 22.523 5.00372C22.523 5.27728 22.4247 5.51228 22.228 5.70872L11.941 15.9961Z"/>
</svg>
